<mxGraphModel dx="1215" dy="3000" grid="1" gridSize="10" guides="1" tooltips="1" connect="1" arrows="1" fold="1" page="1" pageScale="1" pageWidth="850" pageHeight="3100" math="0" shadow="0">
  <root>
    <mxCell id="0" />
    <mxCell id="1" parent="0" />
    <!-- Start -->
    <mxCell id="2" value="เริ่มต้น" style="ellipse;whiteSpace=wrap;html=1;fillColor=#dae8fc;strokeColor=#6c8ebf;" vertex="1" parent="1">
      <mxGeometry x="360" y="20" width="100" height="50" as="geometry" />
    </mxCell>
    <!-- Process: Initialization -->
    <mxCell id="3" value="ประกาศตัวแปร num (int)" style="rounded=0;whiteSpace=wrap;html=1;fillColor=#d5e8d4;strokeColor=#82b366;" vertex="1" parent="1">
      <mxGeometry x="320" y="120" width="180" height="50" as="geometry" />
    </mxCell>
    <!-- IO: Input Score -->
    <mxCell id="4" value="แสดง &quot;User Input :&quot;&lt;br&gt;และรับค่า num" style="shape=parallelogram;perimeter=parallelogramPerimeter;whiteSpace=wrap;html=1;fixedSize=1;fillColor=#fff2cc;strokeColor=#d6b656;" vertex="1" parent="1">
      <mxGeometry x="305" y="220" width="210" height="60" as="geometry" />
    </mxCell>
    <!-- Condition: Input Check (scanf != 1) -->
    <mxCell id="5" value="รับค่าตัวเลขสำเร็จหรือไม่?&lt;br&gt;(scanf != 1)" style="rhombus;whiteSpace=wrap;html=1;fillColor=#f8cecc;strokeColor=#b85450;" vertex="1" parent="1">
      <mxGeometry x="340" y="320" width="140" height="80" as="geometry" />
    </mxCell>
    <!-- Process: Display Result Prompt (False Path) -->
    <mxCell id="6" value="แสดง &quot;Result : &quot;" style="shape=parallelogram;perimeter=parallelogramPerimeter;whiteSpace=wrap;html=1;fixedSize=1;fillColor=#fff2cc;strokeColor=#d6b656;" vertex="1" parent="1">
      <mxGeometry x="340" y="440" width="140" height="50" as="geometry" />
    </mxCell>
    <!-- Error Path (True) -->
    <mxCell id="7" value="แสดง Error: Invalid input." style="shape=parallelogram;perimeter=parallelogramPerimeter;whiteSpace=wrap;html=1;fixedSize=1;fillColor=#fff2cc;strokeColor=#d6b656;" vertex="1" parent="1">
      <mxGeometry x="100" y="335" width="200" height="50" as="geometry" />
    </mxCell>
    <mxCell id="8" value="คืนค่า 1 (Return 1)" style="rounded=0;whiteSpace=wrap;html=1;fillColor=#d5e8d4;strokeColor=#82b366;" vertex="1" parent="1">
      <mxGeometry x="135" y="440" width="130" height="50" as="geometry" />
    </mxCell>
    <!-- Condition Chain (num == 0 to num == 20) -->
    <mxCell id="9" value="num == 0 ?" style="rhombus;whiteSpace=wrap;html=1;fillColor=#d4e1f5;strokeColor=#7ea6e0;" vertex="1" parent="1">
      <mxGeometry x="350" y="540" width="120" height="50" as="geometry" />
    </mxCell>
    <mxCell id="10" value="num == 1 ?" style="rhombus;whiteSpace=wrap;html=1;fillColor=#d4e1f5;strokeColor=#7ea6e0;" vertex="1" parent="1">
      <mxGeometry x="350" y="640" width="120" height="50" as="geometry" />
    </mxCell>
    <mxCell id="11" value="num == 2 ?" style="rhombus;whiteSpace=wrap;html=1;fillColor=#d4e1f5;strokeColor=#7ea6e0;" vertex="1" parent="1">
      <mxGeometry x="350" y="740" width="120" height="50" as="geometry" />
    </mxCell>
    <mxCell id="12" value="num == 3 ?" style="rhombus;whiteSpace=wrap;html=1;fillColor=#d4e1f5;strokeColor=#7ea6e0;" vertex="1" parent="1">
      <mxGeometry x="350" y="840" width="120" height="50" as="geometry" />
    </mxCell>
    <mxCell id="13" value="num == 4 ?" style="rhombus;whiteSpace=wrap;html=1;fillColor=#d4e1f5;strokeColor=#7ea6e0;" vertex="1" parent="1">
      <mxGeometry x="350" y="940" width="120" height="50" as="geometry" />
    </mxCell>
    <mxCell id="14" value="num == 5 ?" style="rhombus;whiteSpace=wrap;html=1;fillColor=#d4e1f5;strokeColor=#7ea6e0;" vertex="1" parent="1">
      <mxGeometry x="350" y="1040" width="120" height="50" as="geometry" />
    </mxCell>
    <mxCell id="15" value="num == 6 ?" style="rhombus;whiteSpace=wrap;html=1;fillColor=#d4e1f5;strokeColor=#7ea6e0;" vertex="1" parent="1">
      <mxGeometry x="350" y="1140" width="120" height="50" as="geometry" />
    </mxCell>
    <mxCell id="16" value="num == 7 ?" style="rhombus;whiteSpace=wrap;html=1;fillColor=#d4e1f5;strokeColor=#7ea6e0;" vertex="1" parent="1">
      <mxGeometry x="350" y="1240" width="120" height="50" as="geometry" />
    </mxCell>
    <mxCell id="17" value="num == 8 ?" style="rhombus;whiteSpace=wrap;html=1;fillColor=#d4e1f5;strokeColor=#7ea6e0;" vertex="1" parent="1">
      <mxGeometry x="350" y="1340" width="120" height="50" as="geometry" />
    </mxCell>
    <mxCell id="18" value="num == 9 ?" style="rhombus;whiteSpace=wrap;html=1;fillColor=#d4e1f5;strokeColor=#7ea6e0;" vertex="1" parent="1">
      <mxGeometry x="350" y="1440" width="120" height="50" as="geometry" />
    </mxCell>
    <mxCell id="19" value="num == 10 ?" style="rhombus;whiteSpace=wrap;html=1;fillColor=#d4e1f5;strokeColor=#7ea6e0;" vertex="1" parent="1">
      <mxGeometry x="350" y="1540" width="120" height="50" as="geometry" />
    </mxCell>
    <mxCell id="20" value="num == 11 ?" style="rhombus;whiteSpace=wrap;html=1;fillColor=#d4e1f5;strokeColor=#7ea6e0;" vertex="1" parent="1">
      <mxGeometry x="350" y="1640" width="120" height="50" as="geometry" />
    </mxCell>
    <mxCell id="21" value="num == 12 ?" style="rhombus;whiteSpace=wrap;html=1;fillColor=#d4e1f5;strokeColor=#7ea6e0;" vertex="1" parent="1">
      <mxGeometry x="350" y="1740" width="120" height="50" as="geometry" />
    </mxCell>
    <mxCell id="22" value="num == 13 ?" style="rhombus;whiteSpace=wrap;html=1;fillColor=#d4e1f5;strokeColor=#7ea6e0;" vertex="1" parent="1">
      <mxGeometry x="350" y="1840" width="120" height="50" as="geometry" />
    </mxCell>
    <mxCell id="23" value="num == 14 ?" style="rhombus;whiteSpace=wrap;html=1;fillColor=#d4e1f5;strokeColor=#7ea6e0;" vertex="1" parent="1">
      <mxGeometry x="350" y="1940" width="120" height="50" as="geometry" />
    </mxCell>
    <mxCell id="24" value="num == 15 ?" style="rhombus;whiteSpace=wrap;html=1;fillColor=#d4e1f5;strokeColor=#7ea6e0;" vertex="1" parent="1">
      <mxGeometry x="350" y="2040" width="120" height="50" as="geometry" />
    </mxCell>
    <mxCell id="25" value="num == 16 ?" style="rhombus;whiteSpace=wrap;html=1;fillColor=#d4e1f5;strokeColor=#7ea6e0;" vertex="1" parent="1">
      <mxGeometry x="350" y="2140" width="120" height="50" as="geometry" />
    </mxCell>
    <mxCell id="26" value="num == 17 ?" style="rhombus;whiteSpace=wrap;html=1;fillColor=#d4e1f5;strokeColor=#7ea6e0;" vertex="1" parent="1">
      <mxGeometry x="350" y="2240" width="120" height="50" as="geometry" />
    </mxCell>
    <mxCell id="27" value="num == 18 ?" style="rhombus;whiteSpace=wrap;html=1;fillColor=#d4e1f5;strokeColor=#7ea6e0;" vertex="1" parent="1">
      <mxGeometry x="350" y="2340" width="120" height="50" as="geometry" />
    </mxCell>
    <mxCell id="28" value="num == 19 ?" style="rhombus;whiteSpace=wrap;html=1;fillColor=#d4e1f5;strokeColor=#7ea6e0;" vertex="1" parent="1">
      <mxGeometry x="350" y="2440" width="120" height="50" as="geometry" />
    </mxCell>
    <mxCell id="29" value="num == 20 ?" style="rhombus;whiteSpace=wrap;html=1;fillColor=#d4e1f5;strokeColor=#7ea6e0;" vertex="1" parent="1">
      <mxGeometry x="350" y="2540" width="120" height="50" as="geometry" />
    </mxCell>
    <!-- Final Else (Out of Range) -->
    <mxCell id="30" value="แสดง &quot;Number is out of range...&quot;" style="shape=parallelogram;perimeter=parallelogramPerimeter;whiteSpace=wrap;html=1;fixedSize=1;fillColor=#fff2cc;strokeColor=#d6b656;" vertex="1" parent="1">
      <mxGeometry x="320" y="2640" width="180" height="60" as="geometry" />
    </mxCell>
    <!-- Success Outputs (True Paths) -->
    <mxCell id="O0" value="แสดง &quot;zero&quot;" style="shape=parallelogram;perimeter=parallelogramPerimeter;whiteSpace=wrap;html=1;fixedSize=1;fillColor=#d5e8d4;strokeColor=#82b366;" vertex="1" parent="1">
      <mxGeometry x="540" y="540" width="120" height="50" as="geometry" />
    </mxCell>
    <mxCell id="O1" value="แสดง &quot;one&quot;" style="shape=parallelogram;perimeter=parallelogramPerimeter;whiteSpace=wrap;html=1;fixedSize=1;fillColor=#d5e8d4;strokeColor=#82b366;" vertex="1" parent="1">
      <mxGeometry x="540" y="640" width="120" height="50" as="geometry" />
    </mxCell>
    <mxCell id="O2" value="แสดง &quot;two&quot;" style="shape=parallelogram;perimeter=parallelogramPerimeter;whiteSpace=wrap;html=1;fixedSize=1;fillColor=#d5e8d4;strokeColor=#82b366;" vertex="1" parent="1">
      <mxGeometry x="540" y="740" width="120" height="50" as="geometry" />
    </mxCell>
    <mxCell id="O3" value="แสดง &quot;three&quot;" style="shape=parallelogram;perimeter=parallelogramPerimeter;whiteSpace=wrap;html=1;fixedSize=1;fillColor=#d5e8d4;strokeColor=#82b366;" vertex="1" parent="1">
      <mxGeometry x="540" y="840" width="120" height="50" as="geometry" />
    </mxCell>
    <mxCell id="O4" value="แสดง &quot;four&quot;" style="shape=parallelogram;perimeter=parallelogramPerimeter;whiteSpace=wrap;html=1;fixedSize=1;fillColor=#d5e8d4;strokeColor=#82b366;" vertex="1" parent="1">
      <mxGeometry x="540" y="940" width="120" height="50" as="geometry" />
    </mxCell>
    <mxCell id="O5" value="แสดง &quot;five&quot;" style="shape=parallelogram;perimeter=parallelogramPerimeter;whiteSpace=wrap;html=1;fixedSize=1;fillColor=#d5e8d4;strokeColor=#82b366;" vertex="1" parent="1">
      <mxGeometry x="540" y="1040" width="120" height="50" as="geometry" />
    </mxCell>
    <mxCell id="O6" value="แสดง &quot;six&quot;" style="shape=parallelogram;perimeter=parallelogramPerimeter;whiteSpace=wrap;html=1;fixedSize=1;fillColor=#d5e8d4;strokeColor=#82b366;" vertex="1" parent="1">
      <mxGeometry x="540" y="1140" width="120" height="50" as="geometry" />
    </mxCell>
    <mxCell id="O7" value="แสดง &quot;seven&quot;" style="shape=parallelogram;perimeter=parallelogramPerimeter;whiteSpace=wrap;html=1;fixedSize=1;fillColor=#d5e8d4;strokeColor=#82b366;" vertex="1" parent="1">
      <mxGeometry x="540" y="1240" width="120" height="50" as="geometry" />
    </mxCell>
    <mxCell id="O8" value="แสดง &quot;eight&quot;" style="shape=parallelogram;perimeter=parallelogramPerimeter;whiteSpace=wrap;html=1;fixedSize=1;fillColor=#d5e8d4;strokeColor=#82b366;" vertex="1" parent="1">
      <mxGeometry x="540" y="1340" width="120" height="50" as="geometry" />
    </mxCell>
    <mxCell id="O9" value="แสดง &quot;nine&quot;" style="shape=parallelogram;perimeter=parallelogramPerimeter;whiteSpace=wrap;html=1;fixedSize=1;fillColor=#d5e8d4;strokeColor=#82b366;" vertex="1" parent="1">
      <mxGeometry x="540" y="1440" width="120" height="50" as="geometry" />
    </mxCell>
    <mxCell id="O10" value="แสดง &quot;ten&quot;" style="shape=parallelogram;perimeter=parallelogramPerimeter;whiteSpace=wrap;html=1;fixedSize=1;fillColor=#d5e8d4;strokeColor=#82b366;" vertex="1" parent="1">
      <mxGeometry x="540" y="1540" width="120" height="50" as="geometry" />
    </mxCell>
    <mxCell id="O11" value="แสดง &quot;eleven&quot;" style="shape=parallelogram;perimeter=parallelogramPerimeter;whiteSpace=wrap;html=1;fixedSize=1;fillColor=#d5e8d4;strokeColor=#82b366;" vertex="1" parent="1">
      <mxGeometry x="540" y="1640" width="120" height="50" as="geometry" />
    </mxCell>
    <mxCell id="O12" value="แสดง &quot;twelve&quot;" style="shape=parallelogram;perimeter=parallelogramPerimeter;whiteSpace=wrap;html=1;fixedSize=1;fillColor=#d5e8d4;strokeColor=#82b366;" vertex="1" parent="1">
      <mxGeometry x="540" y="1740" width="120" height="50" as="geometry" />
    </mxCell>
    <mxCell id="O13" value="แสดง &quot;thirteen&quot;" style="shape=parallelogram;perimeter=parallelogramPerimeter;whiteSpace=wrap;html=1;fixedSize=1;fillColor=#d5e8d4;strokeColor=#82b366;" vertex="1" parent="1">
      <mxGeometry x="540" y="1840" width="120" height="50" as="geometry" />
    </mxCell>
    <mxCell id="O14" value="แสดง &quot;fourteen&quot;" style="shape=parallelogram;perimeter=parallelogramPerimeter;whiteSpace=wrap;html=1;fixedSize=1;fillColor=#d5e8d4;strokeColor=#82b366;" vertex="1" parent="1">
      <mxGeometry x="540" y="1940" width="120" height="50" as="geometry" />
    </mxCell>
    <mxCell id="O15" value="แสดง &quot;fifteen&quot;" style="shape=parallelogram;perimeter=parallelogramPerimeter;whiteSpace=wrap;html=1;fixedSize=1;fillColor=#d5e8d4;strokeColor=#82b366;" vertex="1" parent="1">
      <mxGeometry x="540" y="2040" width="120" height="50" as="geometry" />
    </mxCell>
    <mxCell id="O16" value="แสดง &quot;sixteen&quot;" style="shape=parallelogram;perimeter=parallelogramPerimeter;whiteSpace=wrap;html=1;fixedSize=1;fillColor=#d5e8d4;strokeColor=#82b366;" vertex="1" parent="1">
      <mxGeometry x="540" y="2140" width="120" height="50" as="geometry" />
    </mxCell>
    <mxCell id="O17" value="แสดง &quot;seventeen&quot;" style="shape=parallelogram;perimeter=parallelogramPerimeter;whiteSpace=wrap;html=1;fixedSize=1;fillColor=#d5e8d4;strokeColor=#82b366;" vertex="1" parent="1">
      <mxGeometry x="540" y="2240" width="120" height="50" as="geometry" />
    </mxCell>
    <mxCell id="O18" value="แสดง &quot;eighteen&quot;" style="shape=parallelogram;perimeter=parallelogramPerimeter;whiteSpace=wrap;html=1;fixedSize=1;fillColor=#d5e8d4;strokeColor=#82b366;" vertex="1" parent="1">
      <mxGeometry x="540" y="2340" width="120" height="50" as="geometry" />
    </mxCell>
    <mxCell id="O19" value="แสดง &quot;nineteen&quot;" style="shape=parallelogram;perimeter=parallelogramPerimeter;whiteSpace=wrap;html=1;fixedSize=1;fillColor=#d5e8d4;strokeColor=#82b366;" vertex="1" parent="1">
      <mxGeometry x="540" y="2440" width="120" height="50" as="geometry" />
    </mxCell>
    <mxCell id="O20" value="แสดง &quot;twenty&quot;" style="shape=parallelogram;perimeter=parallelogramPerimeter;whiteSpace=wrap;html=1;fixedSize=1;fillColor=#d5e8d4;strokeColor=#82b366;" vertex="1" parent="1">
      <mxGeometry x="540" y="2540" width="120" height="50" as="geometry" />
    </mxCell>
    <!-- Process: Return 0 (Success) -->
    <mxCell id="R0" value="คืนค่า 0 (Return 0)" style="rounded=0;whiteSpace=wrap;html=1;fillColor=#d5e8d4;strokeColor=#82b366;" vertex="1" parent="1">
      <mxGeometry x="540" y="2760" width="120" height="50" as="geometry" />
    </mxCell>
    <!-- Stop -->
    <mxCell id="S" value="สิ้นสุด" style="ellipse;whiteSpace=wrap;html=1;fillColor=#dae8fc;strokeColor=#6c8ebf;" vertex="1" parent="1">
      <mxGeometry x="550" y="2860" width="100" height="50" as="geometry" />
    </mxCell>
    <!-- Connections (Top to Bottom) -->
    <mxCell id="C1" value="" style="endArrow=classic;html=1;" edge="1" parent="1" source="2" target="3">
      <mxGeometry relative="1" as="geometry" />
    </mxCell>
    <mxCell id="C2" value="" style="endArrow=classic;html=1;" edge="1" parent="1" source="3" target="4">
      <mxGeometry relative="1" as="geometry" />
    </mxCell>
    <mxCell id="C3" value="" style="endArrow=classic;html=1;" edge="1" parent="1" source="4" target="5">
      <mxGeometry relative="1" as="geometry" />
    </mxCell>
    <!-- Error Path Connections -->
    <mxCell id="C4" value="จริง" style="edgeStyle=orthogonalEdgeStyle;html=1;align=center;verticalAlign=bottom;endArrow=classic;" edge="1" parent="1" source="5" target="7">
      <mxGeometry relative="1" as="geometry">
        <mxPoint x="340" y="360" as="sourcePoint" />
        <Array as="points">
          <mxPoint x="310" y="360" />
          <mxPoint x="310" y="360" />
        </Array>
      </mxGeometry>
    </mxCell>
    <mxCell id="C5" value="" style="endArrow=classic;html=1;" edge="1" parent="1" source="7" target="8">
      <mxGeometry relative="1" as="geometry" />
    </mxCell>
    <mxCell id="C6" value="" style="endArrow=classic;html=1;entryDx=0;entryDy=0;entryPerimeter=0;" edge="1" parent="1" source="8" target="S">
      <mxGeometry relative="1" as="geometry">
        <mxPoint x="200" y="490" as="sourcePoint" />
        <Array as="points">
          <mxPoint x="200" y="2885" />
          <mxPoint x="550" y="2885" />
        </Array>
      </mxGeometry>
    </mxCell>
    <!-- Main Flow Connections (Condition Chain) -->
    <mxCell id="C7" value="เท็จ" style="endArrow=classic;html=1;align=center;verticalAlign=bottom;entryDx=0;entryDy=0;entryPerimeter=0;" edge="1" parent="1" source="5" target="6">
      <mxGeometry relative="1" as="geometry" />
    </mxCell>
    <mxCell id="C8" value="" style="endArrow=classic;html=1;entryDx=0;entryDy=0;entryPerimeter=0;" edge="1" parent="1" source="6" target="9">
      <mxGeometry relative="1" as="geometry" />
    </mxCell>
    <!-- C0 -->
    <mxCell id="C9_F" value="เท็จ" style="endArrow=classic;html=1;" edge="1" parent="1" source="9" target="10">
      <mxGeometry relative="1" as="geometry" />
    </mxCell>
    <mxCell id="C9_T" value="จริง" style="edgeStyle=orthogonalEdgeStyle;html=1;align=center;verticalAlign=bottom;endArrow=classic;" edge="1" parent="1" source="9" target="O0">
      <mxGeometry relative="1" as="geometry">
        <mxPoint x="470" y="565" as="sourcePoint" />
      </mxGeometry>
    </mxCell>
    <!-- C1 -->
    <mxCell id="C10_F" value="เท็จ" style="endArrow=classic;html=1;" edge="1" parent="1" source="10" target="11">
      <mxGeometry relative="1" as="geometry" />
    </mxCell>
    <mxCell id="C10_T" value="จริง" style="edgeStyle=orthogonalEdgeStyle;html=1;align=center;verticalAlign=bottom;endArrow=classic;" edge="1" parent="1" source="10" target="O1">
      <mxGeometry relative="1" as="geometry" />
    </mxCell>
    <!-- C2 -->
    <mxCell id="C11_F" value="เท็จ" style="endArrow=classic;html=1;" edge="1" parent="1" source="11" target="12">
      <mxGeometry relative="1" as="geometry" />
    </mxCell>
    <mxCell id="C11_T" value="จริง" style="edgeStyle=orthogonalEdgeStyle;html=1;align=center;verticalAlign=bottom;endArrow=classic;" edge="1" parent="1" source="11" target="O2">
      <mxGeometry relative="1" as="geometry" />
    </mxCell>
    <!-- C3 -->
    <mxCell id="C12_F" value="เท็จ" style="endArrow=classic;html=1;" edge="1" parent="1" source="12" target="13">
      <mxGeometry relative="1" as="geometry" />
    </mxCell>
    <mxCell id="C12_T" value="จริง" style="edgeStyle=orthogonalEdgeStyle;html=1;align=center;verticalAlign=bottom;endArrow=classic;" edge="1" parent="1" source="12" target="O3">
      <mxGeometry relative="1" as="geometry" />
    </mxCell>
    <!-- C4 -->
    <mxCell id="C13_F" value="เท็จ" style="endArrow=classic;html=1;" edge="1" parent="1" source="13" target="14">
      <mxGeometry relative="1" as="geometry" />
    </mxCell>
    <mxCell id="C13_T" value="จริง" style="edgeStyle=orthogonalEdgeStyle;html=1;align=center;verticalAlign=bottom;endArrow=classic;" edge="1" parent="1" source="13" target="O4">
      <mxGeometry relative="1" as="geometry" />
    </mxCell>
    <!-- C5 -->
    <mxCell id="C14_F" value="เท็จ" style="endArrow=classic;html=1;" edge="1" parent="1" source="14" target="15">
      <mxGeometry relative="1" as="geometry" />
    </mxCell>
    <mxCell id="C14_T" value="จริง" style="edgeStyle=orthogonalEdgeStyle;html=1;align=center;verticalAlign=bottom;endArrow=classic;" edge="1" parent="1" source="14" target="O5">
      <mxGeometry relative="1" as="geometry" />
    </mxCell>
    <!-- C6 -->
    <mxCell id="C15_F" value="เท็จ" style="endArrow=classic;html=1;" edge="1" parent="1" source="15" target="16">
      <mxGeometry relative="1" as="geometry" />
    </mxCell>
    <mxCell id="C15_T" value="จริง" style="edgeStyle=orthogonalEdgeStyle;html=1;align=center;verticalAlign=bottom;endArrow=classic;" edge="1" parent="1" source="15" target="O6">
      <mxGeometry relative="1" as="geometry" />
    </mxCell>
    <!-- C7 -->
    <mxCell id="C16_F" value="เท็จ" style="endArrow=classic;html=1;" edge="1" parent="1" source="16" target="17">
      <mxGeometry relative="1" as="geometry" />
    </mxCell>
    <mxCell id="C16_T" value="จริง" style="edgeStyle=orthogonalEdgeStyle;html=1;align=center;verticalAlign=bottom;endArrow=classic;" edge="1" parent="1" source="16" target="O7">
      <mxGeometry relative="1" as="geometry" />
    </mxCell>
    <!-- C8 -->
    <mxCell id="C17_F" value="เท็จ" style="endArrow=classic;html=1;" edge="1" parent="1" source="17" target="18">
      <mxGeometry relative="1" as="geometry" />
    </mxCell>
    <mxCell id="C17_T" value="จริง" style="edgeStyle=orthogonalEdgeStyle;html=1;align=center;verticalAlign=bottom;endArrow=classic;" edge="1" parent="1" source="17" target="O8">
      <mxGeometry relative="1" as="geometry" />
    </mxCell>
    <!-- C9 -->
    <mxCell id="C18_F" value="เท็จ" style="endArrow=classic;html=1;" edge="1" parent="1" source="18" target="19">
      <mxGeometry relative="1" as="geometry" />
    </mxCell>
    <mxCell id="C18_T" value="จริง" style="edgeStyle=orthogonalEdgeStyle;html=1;align=center;verticalAlign=bottom;endArrow=classic;" edge="1" parent="1" source="18" target="O9">
      <mxGeometry relative="1" as="geometry" />
    </mxCell>
    <!-- C10 -->
    <mxCell id="C19_F" value="เท็จ" style="endArrow=classic;html=1;" edge="1" parent="1" source="19" target="20">
      <mxGeometry relative="1" as="geometry" />
    </mxCell>
    <mxCell id="C19_T" value="จริง" style="edgeStyle=orthogonalEdgeStyle;html=1;align=center;verticalAlign=bottom;endArrow=classic;" edge="1" parent="1" source="19" target="O10">
      <mxGeometry relative="1" as="geometry" />
    </mxCell>
    <!-- C11 -->
    <mxCell id="C20_F" value="เท็จ" style="endArrow=classic;html=1;" edge="1" parent="1" source="20" target="21">
      <mxGeometry relative="1" as="geometry" />
    </mxCell>
    <mxCell id="C20_T" value="จริง" style="edgeStyle=orthogonalEdgeStyle;html=1;align=center;verticalAlign=bottom;endArrow=classic;" edge="1" parent="1" source="20" target="O11">
      <mxGeometry relative="1" as="geometry" />
    </mxCell>
    <!-- C12 -->
    <mxCell id="C21_F" value="เท็จ" style="endArrow=classic;html=1;" edge="1" parent="1" source="21" target="22">
      <mxGeometry relative="1" as="geometry" />
    </mxCell>
    <mxCell id="C21_T" value="จริง" style="edgeStyle=orthogonalEdgeStyle;html=1;align=center;verticalAlign=bottom;endArrow=classic;" edge="1" parent="1" source="21" target="O12">
      <mxGeometry relative="1" as="geometry" />
    </mxCell>
    <!-- C13 -->
    <mxCell id="C22_F" value="เท็จ" style="endArrow=classic;html=1;" edge="1" parent="1" source="22" target="23">
      <mxGeometry relative="1" as="geometry" />
    </mxCell>
    <mxCell id="C22_T" value="จริง" style="edgeStyle=orthogonalEdgeStyle;html=1;align=center;verticalAlign=bottom;endArrow=classic;" edge="1" parent="1" source="22" target="O13">
      <mxGeometry relative="1" as="geometry" />
    </mxCell>
    <!-- C14 -->
    <mxCell id="C23_F" value="เท็จ" style="endArrow=classic;html=1;" edge="1" parent="1" source="23" target="24">
      <mxGeometry relative="1" as="geometry" />
    </mxCell>
    <mxCell id="C23_T" value="จริง" style="edgeStyle=orthogonalEdgeStyle;html=1;align=center;verticalAlign=bottom;endArrow=classic;" edge="1" parent="1" source="23" target="O14">
      <mxGeometry relative="1" as="geometry" />
    </mxCell>
    <!-- C15 -->
    <mxCell id="C24_F" value="เท็จ" style="endArrow=classic;html=1;" edge="1" parent="1" source="24" target="25">
      <mxGeometry relative="1" as="geometry" />
    </mxCell>
    <mxCell id="C24_T" value="จริง" style="edgeStyle=orthogonalEdgeStyle;html=1;align=center;verticalAlign=bottom;endArrow=classic;" edge="1" parent="1" source="24" target="O15">
      <mxGeometry relative="1" as="geometry" />
    </mxCell>
    <!-- C16 -->
    <mxCell id="C25_F" value="เท็จ" style="endArrow=classic;html=1;" edge="1" parent="1" source="25" target="26">
      <mxGeometry relative="1" as="geometry" />
    </mxCell>
    <mxCell id="C25_T" value="จริง" style="edgeStyle=orthogonalEdgeStyle;html=1;align=center;verticalAlign=bottom;endArrow=classic;" edge="1" parent="1" source="25" target="O16">
      <mxGeometry relative="1" as="geometry" />
    </mxCell>
    <!-- C17 -->
    <mxCell id="C26_F" value="เท็จ" style="endArrow=classic;html=1;" edge="1" parent="1" source="26" target="27">
      <mxGeometry relative="1" as="geometry" />
    </mxCell>
    <mxCell id="C26_T" value="จริง" style="edgeStyle=orthogonalEdgeStyle;html=1;align=center;verticalAlign=bottom;endArrow=classic;" edge="1" parent="1" source="26" target="O17">
      <mxGeometry relative="1" as="geometry" />
    </mxCell>
    <!-- C18 -->
    <mxCell id="C27_F" value="เท็จ" style="endArrow=classic;html=1;" edge="1" parent="1" source="27" target="28">
      <mxGeometry relative="1" as="geometry" />
    </mxCell>
    <mxCell id="C27_T" value="จริง" style="edgeStyle=orthogonalEdgeStyle;html=1;align=center;verticalAlign=bottom;endArrow=classic;" edge="1" parent="1" source="27" target="O18">
      <mxGeometry relative="1" as="geometry" />
    </mxCell>
    <!-- C19 -->
    <mxCell id="C28_F" value="เท็จ" style="endArrow=classic;html=1;" edge="1" parent="1" source="28" target="29">
      <mxGeometry relative="1" as="geometry" />
    </mxCell>
    <mxCell id="C28_T" value="จริง" style="edgeStyle=orthogonalEdgeStyle;html=1;align=center;verticalAlign=bottom;endArrow=classic;" edge="1" parent="1" source="28" target="O19">
      <mxGeometry relative="1" as="geometry" />
    </mxCell>
    <!-- C20 -->
    <mxCell id="C29_F" value="เท็จ" style="endArrow=classic;html=1;" edge="1" parent="1" source="29" target="30">
      <mxGeometry relative="1" as="geometry" />
    </mxCell>
    <mxCell id="C29_T" value="จริง" style="edgeStyle=orthogonalEdgeStyle;html=1;align=center;verticalAlign=bottom;endArrow=classic;" edge="1" parent="1" source="29" target="O20">
      <mxGeometry relative="1" as="geometry" />
    </mxCell>
    <!-- Output Merge to Return 0 -->
    <mxCell id="M0" value="" style="endArrow=classic;html=1;exitDx=0;exitDy=0;exitPerimeter=0;entryDx=0;entryDy=0;entryPerimeter=0;" edge="1" parent="1" source="O0" target="R0">
      <mxGeometry relative="1" as="geometry">
        <mxPoint x="600" y="590" as="sourcePoint" />
        <Array as="points">
          <mxPoint x="600" y="2740" />
        </Array>
      </mxGeometry>
    </mxCell>
    <mxCell id="M1" value="" style="endArrow=classic;html=1;exitDx=0;exitDy=0;exitPerimeter=0;entryDx=0;entryDy=0;entryPerimeter=0;" edge="1" parent="1" source="O1" target="R0">
      <mxGeometry relative="1" as="geometry">
        <mxPoint x="600" y="690" as="sourcePoint" />
        <Array as="points">
          <mxPoint x="600" y="2740" />
        </Array>
      </mxGeometry>
    </mxCell>
    <mxCell id="M2" value="" style="endArrow=classic;html=1;exitDx=0;exitDy=0;exitPerimeter=0;entryDx=0;entryDy=0;entryPerimeter=0;" edge="1" parent="1" source="O2" target="R0">
      <mxGeometry relative="1" as="geometry">
        <mxPoint x="600" y="790" as="sourcePoint" />
        <Array as="points">
          <mxPoint x="600" y="2740" />
        </Array>
      </mxGeometry>
    </mxCell>
    <mxCell id="M3" value="" style="endArrow=classic;html=1;exitDx=0;exitDy=0;exitPerimeter=0;entryDx=0;entryDy=0;entryPerimeter=0;" edge="1" parent="1" source="O3" target="R0">
      <mxGeometry relative="1" as="geometry">
        <mxPoint x="600" y="890" as="sourcePoint" />
        <Array as="points">
          <mxPoint x="600" y="2740" />
        </Array>
      </mxGeometry>
    </mxCell>
    <mxCell id="M4" value="" style="endArrow=classic;html=1;exitDx=0;exitDy=0;exitPerimeter=0;entryDx=0;entryDy=0;entryPerimeter=0;" edge="1" parent="1" source="O4" target="R0">
      <mxGeometry relative="1" as="geometry">
        <mxPoint x="600" y="990" as="sourcePoint" />
        <Array as="points">
          <mxPoint x="600" y="2740" />
        </Array>
      </mxGeometry>
    </mxCell>
    <mxCell id="M5" value="" style="endArrow=classic;html=1;exitDx=0;exitDy=0;exitPerimeter=0;entryDx=0;entryDy=0;entryPerimeter=0;" edge="1" parent="1" source="O5" target="R0">
      <mxGeometry relative="1" as="geometry">
        <mxPoint x="600" y="1090" as="sourcePoint" />
        <Array as="points">
          <mxPoint x="600" y="2740" />
        </Array>
      </mxGeometry>
    </mxCell>
    <mxCell id="M6" value="" style="endArrow=classic;html=1;exitDx=0;exitDy=0;exitPerimeter=0;entryDx=0;entryDy=0;entryPerimeter=0;" edge="1" parent="1" source="O6" target="R0">
      <mxGeometry relative="1" as="geometry">
        <mxPoint x="600" y="1190" as="sourcePoint" />
        <Array as="points">
          <mxPoint x="600" y="2740" />
        </Array>
      </mxGeometry>
    </mxCell>
    <mxCell id="M7" value="" style="endArrow=classic;html=1;exitDx=0;exitDy=0;exitPerimeter=0;entryDx=0;entryDy=0;entryPerimeter=0;" edge="1" parent="1" source="O7" target="R0">
      <mxGeometry relative="1" as="geometry">
        <mxPoint x="600" y="1290" as="sourcePoint" />
        <Array as="points">
          <mxPoint x="600" y="2740" />
        </Array>
      </mxGeometry>
    </mxCell>
    <mxCell id="M8" value="" style="endArrow=classic;html=1;exitDx=0;exitDy=0;exitPerimeter=0;entryDx=0;entryDy=0;entryPerimeter=0;" edge="1" parent="1" source="O8" target="R0">
      <mxGeometry relative="1" as="geometry">
        <mxPoint x="600" y="1390" as="sourcePoint" />
        <Array as="points">
          <mxPoint x="600" y="2740" />
        </Array>
      </mxGeometry>
    </mxCell>
    <mxCell id="M9" value="" style="endArrow=classic;html=1;exitDx=0;exitDy=0;exitPerimeter=0;entryDx=0;entryDy=0;entryPerimeter=0;" edge="1" parent="1" source="O9" target="R0">
      <mxGeometry relative="1" as="geometry">
        <mxPoint x="600" y="1490" as="sourcePoint" />
        <Array as="points">
          <mxPoint x="600" y="2740" />
        </Array>
      </mxGeometry>
    </mxCell>
    <mxCell id="M10" value="" style="endArrow=classic;html=1;exitDx=0;exitDy=0;exitPerimeter=0;entryDx=0;entryDy=0;entryPerimeter=0;" edge="1" parent="1" source="O10" target="R0">
      <mxGeometry relative="1" as="geometry">
        <mxPoint x="600" y="1590" as="sourcePoint" />
        <Array as="points">
          <mxPoint x="600" y="2740" />
        </Array>
      </mxGeometry>
    </mxCell>
    <mxCell id="M11" value="" style="endArrow=classic;html=1;exitDx=0;exitDy=0;exitPerimeter=0;entryDx=0;entryDy=0;entryPerimeter=0;" edge="1" parent="1" source="O11" target="R0">
      <mxGeometry relative="1" as="geometry">
        <mxPoint x="600" y="1690" as="sourcePoint" />
        <Array as="points">
          <mxPoint x="600" y="2740" />
        </Array>
      </mxGeometry>
    </mxCell>
    <mxCell id="M12" value="" style="endArrow=classic;html=1;exitDx=0;exitDy=0;exitPerimeter=0;entryDx=0;entryDy=0;entryPerimeter=0;" edge="1" parent="1" source="O12" target="R0">
      <mxGeometry relative="1" as="geometry">
        <mxPoint x="600" y="1790" as="sourcePoint" />
        <Array as="points">
          <mxPoint x="600" y="2740" />
        </Array>
      </mxGeometry>
    </mxCell>
    <mxCell id="M13" value="" style="endArrow=classic;html=1;exitDx=0;exitDy=0;exitPerimeter=0;entryDx=0;entryDy=0;entryPerimeter=0;" edge="1" parent="1" source="O13" target="R0">
      <mxGeometry relative="1" as="geometry">
        <mxPoint x="600" y="1890" as="sourcePoint" />
        <Array as="points">
          <mxPoint x="600" y="2740" />
        </Array>
      </mxGeometry>
    </mxCell>
    <mxCell id="M14" value="" style="endArrow=classic;html=1;exitDx=0;exitDy=0;exitPerimeter=0;entryDx=0;entryDy=0;entryPerimeter=0;" edge="1" parent="1" source="O14" target="R0">
      <mxGeometry relative="1" as="geometry">
        <mxPoint x="600" y="1990" as="sourcePoint" />
        <Array as="points">
          <mxPoint x="600" y="2740" />
        </Array>
      </mxGeometry>
    </mxCell>
    <mxCell id="M15" value="" style="endArrow=classic;html=1;exitDx=0;exitDy=0;exitPerimeter=0;entryDx=0;entryDy=0;entryPerimeter=0;" edge="1" parent="1" source="O15" target="R0">
      <mxGeometry relative="1" as="geometry">
        <mxPoint x="600" y="2090" as="sourcePoint" />
        <Array as="points">
          <mxPoint x="600" y="2740" />
        </Array>
      </mxGeometry>
    </mxCell>
    <mxCell id="M16" value="" style="endArrow=classic;html=1;exitDx=0;exitDy=0;exitPerimeter=0;entryDx=0;entryDy=0;entryPerimeter=0;" edge="1" parent="1" source="O16" target="R0">
      <mxGeometry relative="1" as="geometry">
        <mxPoint x="600" y="2190" as="sourcePoint" />
        <Array as="points">
          <mxPoint x="600" y="2740" />
        </Array>
      </mxGeometry>
    </mxCell>
    <mxCell id="M17" value="" style="endArrow=classic;html=1;exitDx=0;exitDy=0;exitPerimeter=0;entryDx=0;entryDy=0;entryPerimeter=0;" edge="1" parent="1" source="O17" target="R0">
      <mxGeometry relative="1" as="geometry">
        <mxPoint x="600" y="2290" as="sourcePoint" />
        <Array as="points">
          <mxPoint x="600" y="2740" />
        </Array>
      </mxGeometry>
    </mxCell>
    <mxCell id="M18" value="" style="endArrow=classic;html=1;exitDx=0;exitDy=0;exitPerimeter=0;entryDx=0;entryDy=0;entryPerimeter=0;" edge="1" parent="1" source="O18" target="R0">
      <mxGeometry relative="1" as="geometry">
        <mxPoint x="600" y="2390" as="sourcePoint" />
        <Array as="points">
          <mxPoint x="600" y="2740" />
        </Array>
      </mxGeometry>
    </mxCell>
    <mxCell id="M19" value="" style="endArrow=classic;html=1;exitDx=0;exitDy=0;exitPerimeter=0;entryDx=0;entryDy=0;entryPerimeter=0;" edge="1" parent="1" source="O19" target="R0">
      <mxGeometry relative="1" as="geometry">
        <mxPoint x="600" y="2490" as="sourcePoint" />
        <Array as="points">
          <mxPoint x="600" y="2740" />
        </Array>
      </mxGeometry>
    </mxCell>
    <mxCell id="M20" value="" style="endArrow=classic;html=1;exitDx=0;exitDy=0;exitPerimeter=0;entryDx=0;entryDy=0;entryPerimeter=0;" edge="1" parent="1" source="O20" target="R0">
      <mxGeometry relative="1" as="geometry">
        <mxPoint x="600" y="2590" as="sourcePoint" />
        <Array as="points">
          <mxPoint x="600" y="2740" />
        </Array>
      </mxGeometry>
    </mxCell>
    <mxCell id="ME" value="" style="endArrow=classic;html=1;entryDx=0;entryDy=0;entryPerimeter=0;" edge="1" parent="1" source="30" target="R0">
      <mxGeometry relative="1" as="geometry">
        <mxPoint x="410" y="2730" as="sourcePoint" />
        <Array as="points">
          <mxPoint x="410" y="2785" />
          <mxPoint x="540" y="2785" />
        </Array>
      </mxGeometry>
    </mxCell>
    <mxCell id="FIN" value="" style="endArrow=classic;html=1;" edge="1" parent="1" source="R0" target="S">
      <mxGeometry relative="1" as="geometry" />
    </mxCell>
    <!-- Condition False Path Connections (Chain) -->
    <mxCell id="F0" value="เท็จ" style="endArrow=classic;html=1;" edge="1" parent="1" source="1" target="2">
      <mxGeometry relative="1" as="geometry" />
    </mxCell>
    <mxCell id="F1" value="เท็จ" style="endArrow=classic;html=1;" edge="1" parent="1" source="1" target="2">
      <mxGeometry relative="1" as="geometry" />
    </mxCell>
    <mxCell id="F2" value="เท็จ" style="endArrow=classic;html=1;" edge="1" parent="1" source="1" target="2">
      <mxGeometry relative="1" as="geometry" />
    </mxCell>
    <mxCell id="F3" value="เท็จ" style="endArrow=classic;html=1;" edge="1" parent="1" source="1" target="2">
      <mxGeometry relative="1" as="geometry" />
    </mxCell>
    <mxCell id="F4" value="เท็จ" style="endArrow=classic;html=1;" edge="1" parent="1" source="1" target="2">
      <mxGeometry relative="1" as="geometry" />
    </mxCell>
    <mxCell id="F5" value="เท็จ" style="endArrow=classic;html=1;" edge="1" parent="1" source="1" target="2">
      <mxGeometry relative="1" as="geometry" />
    </mxCell>
    <mxCell id="F6" value="เท็จ" style="endArrow=classic;html=1;" edge="1" parent="1" source="1" target="2">
      <mxGeometry relative="1" as="geometry" />
    </mxCell>
    <mxCell id="F7" value="เท็จ" style="endArrow=classic;html=1;" edge="1" parent="1" source="1" target="2">
      <mxGeometry relative="1" as="geometry" />
    </mxCell>
    <mxCell id="F8" value="เท็จ" style="endArrow=classic;html=1;" edge="1" parent="1" source="1" target="2">
      <mxGeometry relative="1" as="geometry" />
    </mxCell>
    <mxCell id="F9" value="เท็จ" style="endArrow=classic;html=1;" edge="1" parent="1" source="1" target="2">
      <mxGeometry relative="1" as="geometry" />
    </mxCell>
    <mxCell id="F10" value="เท็จ" style="endArrow=classic;html=1;" edge="1" parent="1" source="1" target="2">
      <mxGeometry relative="1" as="geometry" />
    </mxCell>
    <mxCell id="F11" value="เท็จ" style="endArrow=classic;html=1;" edge="1" parent="1" source="1" target="2">
      <mxGeometry relative="1" as="geometry" />
    </mxCell>
    <mxCell id="F12" value="เท็จ" style="endArrow=classic;html=1;" edge="1" parent="1" source="1" target="2">
      <mxGeometry relative="1" as="geometry" />
    </mxCell>
    <mxCell id="F13" value="เท็จ" style="endArrow=classic;html=1;" edge="1" parent="1" source="1" target="2">
      <mxGeometry relative="1" as="geometry" />
    </mxCell>
    <mxCell id="F14" value="เท็จ" style="endArrow=classic;html=1;" edge="1" parent="1" source="1" target="2">
      <mxGeometry relative="1" as="geometry" />
    </mxCell>
    <mxCell id="F15" value="เท็จ" style="endArrow=classic;html=1;" edge="1" parent="1" source="1" target="2">
      <mxGeometry relative="1" as="geometry" />
    </mxCell>
    <mxCell id="F16" value="เท็จ" style="endArrow=classic;html=1;" edge="1" parent="1" source="1" target="2">
      <mxGeometry relative="1" as="geometry" />
    </mxCell>
    <mxCell id="F17" value="เท็จ" style="endArrow=classic;html=1;" edge="1" parent="1" source="1" target="2">
      <mxGeometry relative="1" as="geometry" />
    </mxCell>
    <mxCell id="F18" value="เท็จ" style="endArrow=classic;html=1;" edge="1" parent="1" source="1" target="2">
      <mxGeometry relative="1" as="geometry" />
    </mxCell>
    <mxCell id="F19" value="เท็จ" style="endArrow=classic;html=1;" edge="1" parent="1" source="1" target="2">
      <mxGeometry relative="1" as="geometry" />
    </mxCell>
    <mxCell id="F20" value="เท็จ" style="endArrow=classic;html=1;" edge="1" parent="1" source="1" target="2">
      <mxGeometry relative="1" as="geometry" />
    </mxCell>
    <mxCell id="F21" value="เท็จ" style="endArrow=classic;html=1;" edge="1" parent="1" source="1" target="2">
      <mxGeometry relative="1" as="geometry" />
    </mxCell>
    <mxCell id="F_0" value="เท็จ" style="endArrow=classic;html=1;" edge="1" parent="1" source="9" target="10">
      <mxGeometry relative="1" as="geometry" />
    </mxCell>
    <mxCell id="F_1" value="เท็จ" style="endArrow=classic;html=1;" edge="1" parent="1" source="10" target="11">
      <mxGeometry relative="1" as="geometry" />
    </mxCell>
    <mxCell id="F_2" value="เท็จ" style="endArrow=classic;html=1;" edge="1" parent="1" source="11" target="12">
      <mxGeometry relative="1" as="geometry" />
    </mxCell>
    <mxCell id="F_3" value="เท็จ" style="endArrow=classic;html=1;" edge="1" parent="1" source="12" target="13">
      <mxGeometry relative="1" as="geometry" />
    </mxCell>
    <mxCell id="F_4" value="เท็จ" style="endArrow=classic;html=1;" edge="1" parent="1" source="13" target="14">
      <mxGeometry relative="1" as="geometry" />
    </mxCell>
    <mxCell id="F_5" value="เท็จ" style="endArrow=classic;html=1;" edge="1" parent="1" source="14" target="15">
      <mxGeometry relative="1" as="geometry" />
    </mxCell>
    <mxCell id="F_6" value="เท็จ" style="endArrow=classic;html=1;" edge="1" parent="1" source="15" target="16">
      <mxGeometry relative="1" as="geometry" />
    </mxCell>
    <mxCell id="F_7" value="เท็จ" style="endArrow=classic;html=1;" edge="1" parent="1" source="16" target="17">
      <mxGeometry relative="1" as="geometry" />
    </mxCell>
    <mxCell id="F_8" value="เท็จ" style="endArrow=classic;html=1;" edge="1" parent="1" source="17" target="18">
      <mxGeometry relative="1" as="geometry" />
    </mxCell>
    <mxCell id="F_9" value="เท็จ" style="endArrow=classic;html=1;" edge="1" parent="1" source="18" target="19">
      <mxGeometry relative="1" as="geometry" />
    </mxCell>
    <mxCell id="F_10" value="เท็จ" style="endArrow=classic;html=1;" edge="1" parent="1" source="19" target="20">
      <mxGeometry relative="1" as="geometry" />
    </mxCell>
    <mxCell id="F_11" value="เท็จ" style="endArrow=classic;html=1;" edge="1" parent="1" source="20" target="21">
      <mxGeometry relative="1" as="geometry" />
    </mxCell>
    <mxCell id="F_12" value="เท็จ" style="endArrow=classic;html=1;" edge="1" parent="1" source="21" target="22">
      <mxGeometry relative="1" as="geometry" />
    </mxCell>
    <mxCell id="F_13" value="เท็จ" style="endArrow=classic;html=1;" edge="1" parent="1" source="22" target="23">
      <mxGeometry relative="1" as="geometry" />
    </mxCell>
    <mxCell id="F_14" value="เท็จ" style="endArrow=classic;html=1;" edge="1" parent="1" source="23" target="24">
      <mxGeometry relative="1" as="geometry" />
    </mxCell>
    <mxCell id="F_15" value="เท็จ" style="endArrow=classic;html=1;" edge="1" parent="1" source="24" target="25">
      <mxGeometry relative="1" as="geometry" />
    </mxCell>
    <mxCell id="F_16" value="เท็จ" style="endArrow=classic;html=1;" edge="1" parent="1" source="25" target="26">
      <mxGeometry relative="1" as="geometry" />
    </mxCell>
    <mxCell id="F_17" value="เท็จ" style="endArrow=classic;html=1;" edge="1" parent="1" source="26" target="27">
      <mxGeometry relative="1" as="geometry" />
    </mxCell>
    <mxCell id="F_18" value="เท็จ" style="endArrow=classic;html=1;" edge="1" parent="1" source="27" target="28">
      <mxGeometry relative="1" as="geometry" />
    </mxCell>
    <mxCell id="F_19" value="เท็จ" style="endArrow=classic;html=1;" edge="1" parent="1" source="28" target="29">
      <mxGeometry relative="1" as="geometry" />
    </mxCell>
    <mxCell id="F_20" value="เท็จ" style="endArrow=classic;html=1;" edge="1" parent="1" source="29" target="30">
      <mxGeometry relative="1" as="geometry" />
    </mxCell>
  </root>
</mxGraphModel>
